<svg width="220" height="220" viewBox="0 0 220 220" fill="none" xmlns="http://www.w3.org/2000/svg">
<rect width="220" height="220" rx="10" fill="#955C07"/>
<path d="M207.619 10L187.879 15.3028C189.004 17.5821 189.74 20.0938 190 22.743L209.61 17.4746L207.619 10V10ZM86.71 10.2881L85.7576 17.9778L147.662 25.3062V24.6396C147.662 22.1882 148.095 19.8357 148.874 17.6467L86.71 10.2881V10.2881ZM168.874 11.3074C161.429 11.3074 155.455 17.2295 155.455 24.6396C155.455 32.0497 161.429 37.9718 168.874 37.9718C176.32 37.9718 182.294 32.0497 182.294 24.6396C182.294 17.2295 176.32 11.3074 168.874 11.3074ZM149.913 34.0194L117.662 57.626L122.251 63.819L154.589 40.1737C152.641 38.432 151.082 36.3461 149.913 34.0194ZM181.905 41.2489C179.827 42.8402 177.489 44.0788 174.935 44.8099L191.775 73.7107L198.528 69.84L181.905 41.2489V41.2489ZM54.5455 41.4984C54.4156 41.5027 54.329 41.507 54.2424 41.5156C52.8139 41.6532 50.9091 43.0079 49.1342 45.283C48.0519 53.9274 48.0519 63.604 49.2641 72.2054L50 77.2802L44.8485 76.5491C42.6407 76.2481 41.7706 76.2051 39.2597 76.3771L35.4719 76.6351L35.1255 72.8505C34.7792 69.1519 33.4935 63.948 32.0476 60.2494C30.5714 59.0022 29.5671 58.7872 28.6797 58.8732C27.8788 59.0022 26.7576 59.5183 25.4286 60.8085C26.2121 68.8939 26.8831 76.6781 29.1948 84.4194C33.3636 86.2257 39.3333 87.1718 45.1948 86.8708L49.5238 86.6558L49.2641 90.9565C47.4026 122.739 46.6234 152.285 48.8312 183.766C52.3377 185.357 55.671 186.131 58.3117 186.131C60.8225 186.131 62.4675 185.486 63.5065 184.626C65.4545 166.262 63.7662 148.887 62.7273 130.953L62.5108 126.91L66.5801 126.867C71.2121 126.824 75.1082 125.878 77.7922 124.545C80.3896 123.341 81.6017 121.793 81.8182 121.19C84.2424 104.59 85.8874 89.9673 84.9351 74.1837C84.8918 73.2376 84.632 72.9365 84.1558 72.5495C83.7229 72.1624 82.8571 71.8183 81.9048 71.7753C80.9524 71.6893 79.9134 71.9043 79.2641 72.2484C78.6147 72.5925 78.3983 72.8935 78.2684 73.2806C74.1991 86.6558 70.7792 99.9449 70.2165 114.008V114.051L62.4242 113.664V113.621C63.5931 91.6876 62.684 68.5928 61.2987 46.4442C58.1818 42.4058 56.0173 41.4812 54.5455 41.4984V41.4984ZM158.268 42.8746L134.935 104.332L142.208 107.084L165.584 45.455C162.987 45.068 160.476 44.1648 158.268 42.8746V42.8746ZM187.013 90.9135V111.471L183.723 110.697L181.991 98.5687L174.286 99.6869L176.797 117.062L187.013 119.427V128.287H86.1472C84.8052 129.577 83.0736 130.652 81.2121 131.555C78.2684 132.931 74.7186 133.964 70.7359 134.394C71.8182 151.252 73.2468 168.326 71.1255 186.733L71.039 187.765L70.3896 188.625C67.619 192.281 63.0303 193.872 58.3117 193.872C53.5498 193.872 48.3983 192.453 43.2468 189.701L41.3377 188.712L41.1818 186.604C39.697 166.649 39.4372 147.554 39.8874 128.287H10V210H210V128.287H194.805V111.729L204.762 109.45L206.84 98.7838L199.221 97.3215L198.095 102.998L194.805 103.73V90.9135H187.013V90.9135Z" fill="#DECC28" stroke="#FEFFBC" stroke-width="2"/>
</svg>
